<?xml version="1.0" encoding="utf-8"?>
<svg width="64px" height="64px" viewBox="0 0 64 64" version="1.1" xmlns:xlink="http://www.w3.org/1999/xlink" xmlns="http://www.w3.org/2000/svg">
  <defs>
    <path d="M64 0L64 0L64 64L0 64L0 0L64 0Z" id="path_1" />
    <clipPath id="clip_1">
      <use xlink:href="#path_1" clip-rule="evenodd" fill-rule="evenodd" />
    </clipPath>
  </defs>
  <g id="svg 2">
    <path d="M64 0L64 0L64 64L0 64L0 0L64 0Z" id="svg-2" fill="none" stroke="none" />
    <path d="M27 2C26.447 2 26 2.448 26 3L26 24.6895C24.404 24.2525 22.733 24 21 24C10.523 24 2 32.523 2 43C2 53.477 10.523 62 21 62C24.756 62 28.3908 60.904 31.5078 58.832L30.4004 57.168C27.6114 59.022 24.361 60 21 60C11.626 60 4 52.374 4 43C4 33.626 11.626 26 21 26C30.374 26 38 33.626 38 43C38 44.92 37.6836 46.8046 37.0566 48.6016L38.9453 49.2598C39.6453 47.2498 40 45.145 40 43C40 41.977 39.8953 40.98 39.7383 40L57 40C59.757 40 62 37.757 62 35L62 20C62 19.448 61.553 19 61 19L54 19L54 3C54 2.448 53.553 2 53 2L27 2L27 2ZM28 4L52 4L52 35C52 36.13 52.3904 37.162 53.0254 38L39.3105 38C37.7305 32.224 33.499 27.5435 28 25.3535L28 4L28 4ZM31 7C30.447 7 30 7.448 30 8L30 16C30 16.552 30.447 17 31 17L39 17C39.553 17 40 16.552 40 16L40 8C40 7.448 39.553 7 39 7L31 7L31 7ZM42 8L42 10L50 10L50 8L42 8L42 8ZM32 9L38 9L38 15L32 15L32 9L32 9ZM42 14L42 16L50 16L50 14L42 14L42 14ZM8 16C7.523 16 7.09148 16.2808 6.89648 16.7188C6.11348 18.4888 5.4888 19.1125 3.7168 19.8965C3.2808 20.0895 3 20.523 3 21C3 21.477 3.28175 21.9095 3.71875 22.1035C5.48975 22.8875 6.11348 23.5112 6.89648 25.2832C7.09048 25.7182 7.523 26 8 26C8.477 26 8.90852 25.7192 9.10352 25.2812C9.88652 23.5112 10.5112 22.8875 12.2832 22.1035C12.7192 21.9105 13 21.477 13 21C13 20.523 12.7183 20.0895 12.2812 19.8965C10.5103 19.1125 9.88652 18.4888 9.10352 16.7168C8.90952 16.2808 8.477 16 8 16L8 16ZM8 18.9258C8.553 19.8098 9.18922 20.448 10.0742 21C9.18922 21.553 8.552 22.1902 8 23.0742C7.447 22.1902 6.81078 21.552 5.92578 21C6.81078 20.447 7.448 19.8098 8 18.9258L8 18.9258ZM30 20L30 22L50 22L50 20L30 20L30 20ZM54 21L60 21L60 35C60 36.654 58.654 38 57 38C55.346 38 54 36.654 54 35L54 21L54 21ZM36 26L36 28L50 28L50 26L36 26L36 26ZM40 32L40 34L50 34L50 32L40 32L40 32ZM31.25 34.3379L16.9531 50.5391L11.707 45.293L10.293 46.707L16.293 52.707C16.48 52.895 16.735 53 17 53L17.0312 53C17.3062 52.991 17.567 52.8691 17.75 52.6621L32.75 35.6621L31.25 34.3379L31.25 34.3379ZM35 49C34.523 49 34.0915 49.2808 33.8965 49.7188C33.1135 51.4888 32.4888 52.1125 30.7168 52.8965C30.2808 53.0895 30 53.523 30 54C30 54.477 30.2817 54.9095 30.7188 55.1035C32.4897 55.8875 33.1135 56.5112 33.8965 58.2832C34.0905 58.7182 34.523 59 35 59C35.477 59 35.9085 58.7192 36.1035 58.2812C36.8865 56.5112 37.5112 55.8875 39.2832 55.1035C39.7192 54.9105 40 54.477 40 54C40 53.523 39.7183 53.0895 39.2812 52.8965C37.5103 52.1125 36.8865 51.4888 36.1035 49.7168C35.9095 49.2808 35.477 49 35 49L35 49ZM35 51.9258C35.553 52.8098 36.1892 53.448 37.0742 54C36.1892 54.553 35.552 55.1902 35 56.0742C34.447 55.1902 33.8108 54.552 32.9258 54C33.8108 53.447 34.448 52.8098 35 51.9258L35 51.9258Z" id="Shape" fill="#000000" fill-rule="evenodd" stroke="none" clip-path="url(#clip_1)" />
    <path d="M27 2C26.447 2 26 2.448 26 3L26 24.6895C24.404 24.2525 22.733 24 21 24C10.523 24 2 32.523 2 43C2 53.477 10.523 62 21 62C24.756 62 28.3908 60.904 31.5078 58.832L30.4004 57.168C27.6114 59.022 24.361 60 21 60C11.626 60 4 52.374 4 43C4 33.626 11.626 26 21 26C30.374 26 38 33.626 38 43C38 44.92 37.6836 46.8046 37.0566 48.6016L38.9453 49.2598C39.6453 47.2498 40 45.145 40 43C40 41.977 39.8953 40.98 39.7383 40L57 40C59.757 40 62 37.757 62 35L62 20C62 19.448 61.553 19 61 19L54 19L54 3C54 2.448 53.553 2 53 2L27 2L27 2ZM28 4L52 4L52 35C52 36.13 52.3904 37.162 53.0254 38L39.3105 38C37.7305 32.224 33.499 27.5435 28 25.3535L28 4L28 4ZM31 7C30.447 7 30 7.448 30 8L30 16C30 16.552 30.447 17 31 17L39 17C39.553 17 40 16.552 40 16L40 8C40 7.448 39.553 7 39 7L31 7L31 7ZM42 8L42 10L50 10L50 8L42 8L42 8ZM32 9L38 9L38 15L32 15L32 9L32 9ZM42 14L42 16L50 16L50 14L42 14L42 14ZM8 16C7.523 16 7.09148 16.2808 6.89648 16.7188C6.11348 18.4888 5.4888 19.1125 3.7168 19.8965C3.2808 20.0895 3 20.523 3 21C3 21.477 3.28175 21.9095 3.71875 22.1035C5.48975 22.8875 6.11348 23.5112 6.89648 25.2832C7.09048 25.7182 7.523 26 8 26C8.477 26 8.90852 25.7192 9.10352 25.2812C9.88652 23.5112 10.5112 22.8875 12.2832 22.1035C12.7192 21.9105 13 21.477 13 21C13 20.523 12.7183 20.0895 12.2812 19.8965C10.5103 19.1125 9.88652 18.4888 9.10352 16.7168C8.90952 16.2808 8.477 16 8 16L8 16ZM8 18.9258C8.553 19.8098 9.18922 20.448 10.0742 21C9.18922 21.553 8.552 22.1902 8 23.0742C7.447 22.1902 6.81078 21.552 5.92578 21C6.81078 20.447 7.448 19.8098 8 18.9258L8 18.9258ZM30 20L30 22L50 22L50 20L30 20L30 20ZM54 21L60 21L60 35C60 36.654 58.654 38 57 38C55.346 38 54 36.654 54 35L54 21L54 21ZM36 26L36 28L50 28L50 26L36 26L36 26ZM40 32L40 34L50 34L50 32L40 32L40 32ZM31.25 34.3379L16.9531 50.5391L11.707 45.293L10.293 46.707L16.293 52.707C16.48 52.895 16.735 53 17 53L17.0312 53C17.3062 52.991 17.567 52.8691 17.75 52.6621L32.75 35.6621L31.25 34.3379L31.25 34.3379ZM35 49C34.523 49 34.0915 49.2808 33.8965 49.7188C33.1135 51.4888 32.4888 52.1125 30.7168 52.8965C30.2808 53.0895 30 53.523 30 54C30 54.477 30.2817 54.9095 30.7188 55.1035C32.4897 55.8875 33.1135 56.5112 33.8965 58.2832C34.0905 58.7182 34.523 59 35 59C35.477 59 35.9085 58.7192 36.1035 58.2812C36.8865 56.5112 37.5112 55.8875 39.2832 55.1035C39.7192 54.9105 40 54.477 40 54C40 53.523 39.7183 53.0895 39.2812 52.8965C37.5103 52.1125 36.8865 51.4888 36.1035 49.7168C35.9095 49.2808 35.477 49 35 49L35 49ZM35 51.9258C35.553 52.8098 36.1892 53.448 37.0742 54C36.1892 54.553 35.552 55.1902 35 56.0742C34.447 55.1902 33.8108 54.552 32.9258 54C33.8108 53.447 34.448 52.8098 35 51.9258L35 51.9258Z" id="Shape" fill="#000000" fill-rule="evenodd" stroke="none" clip-path="url(#clip_1)" />
  </g>
</svg>